# xmcd
#
# Track frame offsets:
#   150
#   22452
#   38773
#   57316
#   71780
#   93666
#   111728
#   129626
#   148608
#   173953
#   194380
#   212975
#   231786
#   252621
#   271728
#   290727
#   311311
#
# Disc length: 4405 seconds
#
# Revision: 0
# Processed by: cddbd v1.5.2PL0 Copyright (c) Steve Scherf et al.
# Submitted via: uFREEDB ActiveX Control 1.5
#
DISCID=19113311
DTITLE=Alcione - O melhor de Alcione
DYEAR=1998
DGENRE=Blues
TTITLE0=Você Me Vira a Cabeça 
TTITLE1=A Loba 
TTITLE2=Depois do Prazer 
TTITLE3=Ou Ela ou Eu 
TTITLE4=Gostoso Veneno 
TTITLE5=Além da Cama 
TTITLE6=Nem Morta 
TTITLE7=Meu Vício É Você 
TTITLE8=Sufoco - O Surdo 
TTITLE9=O que Eu Faço Amanhã 
TTITLE10=Mulher Ideal 
TTITLE11=Entidade
TTITLE12=Menino Sem Juízo - Garoto Maroto 
TTITLE13=Estranha Loucura 
TTITLE14=Pior É que Eu Gosto 
TTITLE15=Serei Sempre Tua 
TTITLE16=Quando Você Quiser 
EXTD=
EXTT0=
EXTT1=
EXTT2=
EXTT3=
EXTT4=
EXTT5=
EXTT6=
EXTT7=
EXTT8=
EXTT9=
EXTT10=
EXTT11=
EXTT12=
EXTT13=
EXTT14=
EXTT15=
EXTT16=
PLAYORDER=
